<?xml version="1.0" standalone="no"?>
<!DOCTYPE svg PUBLIC "-//W3C//DTD SVG 20010904//EN"
 "http://www.w3.org/TR/2001/REC-SVG-20010904/DTD/svg10.dtd">
<svg version="1.0" xmlns="http://www.w3.org/2000/svg"
 width="1440.000000pt" height="1361.000000pt" viewBox="0 0 1440.000000 1361.000000"
 preserveAspectRatio="xMidYMid meet">

<g transform="translate(0.000000,1361.000000) scale(0.100000,-0.100000)"
fill="#000000" stroke="none">
<path d="M7123 13579 c-56 -40 -372 -231 -513 -311 -443 -251 -815 -427 -1490
-703 -386 -158 -470 -194 -640 -280 -240 -120 -388 -223 -546 -380 -194 -192
-336 -416 -474 -742 -35 -82 -48 -103 -67 -108 -14 -3 -98 -12 -188 -20 -90
-8 -199 -22 -242 -30 -241 -50 -526 -190 -721 -357 -77 -66 -201 -199 -581
-623 -689 -768 -1049 -1128 -1297 -1295 -93 -63 -149 -89 -191 -90 -27 0 -145
-59 -158 -79 -2 -4 12 -61 31 -126 191 -658 290 -1218 369 -2085 47 -514 83
-742 151 -953 117 -364 341 -665 711 -960 81 -65 103 -87 103 -107 0 -14 -16
-86 -34 -160 -63 -252 -71 -449 -27 -663 61 -291 97 -362 521 -1027 604 -948
802 -1296 913 -1610 24 -70 30 -103 32 -186 1 -55 8 -124 14 -151 l12 -51 132
-6 c776 -39 1267 -108 2197 -311 625 -136 804 -162 1085 -152 172 6 264 18
413 56 193 50 418 148 651 286 150 88 124 89 301 -15 197 -117 337 -172 535
-213 95 -19 141 -22 335 -22 258 0 217 -7 925 155 1185 270 1553 334 1905 335
162 0 179 -2 225 -23 30 -14 78 -26 120 -29 l70 -5 74 182 c257 640 475 1059
949 1819 328 527 431 724 501 958 52 177 66 278 65 493 0 217 -17 337 -78 581
-19 73 -32 138 -29 146 3 7 69 67 148 133 251 210 379 388 490 685 64 171 80
290 145 1075 65 785 118 1203 190 1505 49 205 96 321 154 375 19 18 47 62 62
98 24 56 25 65 12 73 -61 34 -506 396 -728 593 -193 171 -651 632 -900 906
-467 515 -655 688 -905 835 -270 159 -579 245 -990 275 -116 9 -154 15 -167
28 -10 9 -44 79 -77 155 -112 258 -233 425 -424 584 -216 180 -290 216 -1054
519 -913 362 -1384 575 -1648 748 -101 67 -178 136 -199 179 -13 28 -116 129
-128 126 -1 0 -22 -14 -45 -30z m37 -188 c0 -20 111 -128 186 -182 260 -186
686 -384 1694 -787 588 -235 738 -298 825 -347 161 -90 364 -273 463 -418 49
-71 83 -136 188 -365 38 -84 89 -143 139 -162 14 -5 91 -14 172 -20 378 -27
641 -93 892 -226 253 -134 424 -287 890 -799 407 -448 767 -804 1101 -1090
114 -98 365 -302 450 -366 l34 -26 -32 -39 c-97 -121 -176 -402 -242 -863 -38
-264 -70 -577 -120 -1171 -41 -480 -62 -682 -80 -778 -16 -85 -58 -199 -116
-319 -94 -191 -182 -299 -382 -466 -214 -179 -225 -204 -174 -397 140 -526
114 -890 -93 -1318 -76 -157 -129 -248 -326 -564 -471 -752 -678 -1138 -930
-1733 -79 -187 -100 -230 -115 -228 -11 0 -53 9 -94 18 -62 14 -107 16 -260
12 -326 -10 -700 -73 -1495 -252 -1136 -256 -1105 -250 -1325 -242 -306 11
-470 60 -750 224 -119 70 -198 103 -245 103 -38 0 -83 -21 -203 -93 -395 -238
-748 -339 -1127 -324 -226 10 -423 43 -945 158 -760 169 -1341 257 -1910 289
-107 6 -214 14 -237 16 l-43 5 0 63 c0 213 -203 635 -648 1351 -41 66 -184
291 -317 500 -380 597 -413 655 -464 820 -86 278 -89 469 -15 764 39 156 43
234 15 289 -12 24 -60 70 -133 129 -429 344 -631 652 -722 1103 -33 162 -58
367 -96 775 -72 774 -161 1293 -325 1889 -19 70 -35 134 -35 140 0 7 19 18 43
25 169 50 408 242 802 642 207 211 349 365 897 974 123 138 267 293 319 346
190 191 463 340 722 393 41 9 155 23 253 31 196 17 264 38 302 93 10 15 45 90
77 166 174 410 382 671 700 878 176 115 341 191 927 432 721 295 1177 520
1698 836 107 66 198 119 203 119 4 1 7 -3 7 -8z"/>
<path d="M6791 11870 c-40 -5 -77 -12 -81 -17 -5 -4 -42 -125 -84 -268 -41
-143 -107 -368 -146 -499 -38 -132 -69 -240 -67 -242 4 -4 201 16 206 21 2 3
17 53 32 111 15 59 30 109 33 111 4 4 121 16 351 35 l40 3 54 -109 53 -108 67
6 c126 12 142 16 136 34 -3 10 -109 223 -236 475 -220 439 -231 457 -257 456
-15 -1 -60 -5 -101 -9z m124 -409 c42 -89 73 -167 68 -171 -7 -7 -244 -31
-251 -25 -3 3 88 345 95 358 7 12 3 18 88 -162z"/>
<path d="M7925 11838 c-16 -93 -145 -919 -145 -931 0 -9 24 -17 78 -25 128
-20 113 -37 144 164 15 98 29 179 32 181 2 2 53 -3 112 -12 149 -23 259 -23
307 -2 98 43 157 123 178 244 28 159 -63 300 -214 333 -60 13 -456 80 -474 80
-7 0 -15 -15 -18 -32z m314 -184 c108 -20 154 -43 175 -88 21 -44 20 -83 -2
-126 -24 -45 -73 -70 -137 -69 -56 0 -202 22 -211 32 -3 3 3 62 15 130 12 69
21 128 21 131 0 10 50 7 139 -10z"/>
<path d="M5525 11551 c-128 -55 -130 -57 -127 -86 2 -17 24 -166 48 -332 24
-167 44 -308 44 -314 0 -6 -95 111 -211 260 -116 149 -214 271 -218 271 -25 0
-266 -111 -265 -122 2 -12 373 -889 380 -897 6 -7 164 64 164 74 0 6 -57 143
-126 305 -144 337 -169 401 -152 379 7 -9 114 -149 237 -312 123 -164 228
-297 232 -297 4 0 42 15 86 33 55 24 79 39 80 53 2 10 -23 184 -55 387 -32
202 -55 364 -51 360 4 -5 71 -159 149 -343 78 -184 143 -336 144 -338 4 -4
150 58 160 68 5 5 -56 161 -144 367 -84 197 -169 398 -190 448 -21 49 -42 90
-47 91 -4 1 -66 -23 -138 -55z"/>
<path d="M9445 11418 c-15 -18 -178 -186 -362 -374 -184 -188 -335 -346 -335
-350 0 -5 42 -26 92 -48 l92 -39 82 87 81 88 184 -78 183 -78 -7 -117 -7 -118
39 -19 c63 -31 153 -65 159 -60 7 8 28 1047 21 1054 -5 6 -184 84 -191 84 -2
0 -16 -14 -31 -32z m30 -422 c-4 -102 -10 -186 -14 -186 -16 0 -233 97 -233
104 0 10 245 276 250 271 2 -2 1 -87 -3 -189z"/>
<path d="M10460 10807 c-31 -45 -154 -228 -274 -405 -119 -178 -216 -325 -214
-327 13 -10 568 -385 571 -385 2 0 24 31 49 68 l45 68 -199 134 c-110 74 -202
138 -204 142 -4 5 239 373 408 617 20 30 35 57 33 61 -4 7 -153 110 -157 110
-2 -1 -28 -38 -58 -83z"/>
<path d="M3940 10670 c-157 -110 -289 -206 -294 -214 -6 -9 70 -126 268 -410
153 -218 282 -396 287 -396 9 0 535 364 588 407 l23 19 -47 67 -47 68 -32 -24
c-66 -50 -396 -277 -409 -283 -10 -3 -38 27 -86 96 -39 55 -71 105 -71 110 0
5 88 70 195 145 107 75 195 141 195 147 0 9 -55 92 -81 122 -4 5 -98 -55 -209
-133 l-202 -141 -17 23 c-9 12 -38 52 -64 89 l-47 66 195 137 c108 76 206 145
218 155 l22 18 -45 66 c-25 36 -47 66 -50 66 -3 -1 -133 -91 -290 -200z"/>
<path d="M11645 9946 c-33 -18 -238 -127 -455 -241 -217 -114 -399 -210 -403
-215 -9 -8 138 -144 150 -138 5 1 52 27 106 57 87 47 100 51 115 39 21 -18
264 -228 275 -238 4 -4 -11 -58 -34 -120 l-42 -113 44 -39 c86 -75 118 -98
123 -90 19 31 346 996 339 1001 -4 4 -40 35 -79 69 -39 34 -73 62 -75 61 -2 0
-31 -15 -64 -33z m-15 -223 c0 -19 -126 -343 -133 -343 -11 0 -192 160 -191
168 2 7 304 179 317 181 4 1 7 -2 7 -6z"/>
<path d="M3094 9880 c-77 -16 -146 -59 -234 -149 -87 -88 -130 -157 -149 -242
-38 -163 36 -356 186 -488 163 -144 356 -179 529 -96 161 77 295 252 340 443
l17 74 -141 141 -142 142 -152 -153 -153 -152 58 -57 57 -58 80 80 80 79 45
-44 c42 -41 46 -48 40 -80 -18 -100 -92 -202 -178 -244 -115 -58 -244 -22
-368 104 -79 80 -112 143 -117 226 -6 83 23 149 93 212 74 68 143 86 222 58
l39 -14 57 82 56 83 -28 16 c-34 20 -136 47 -171 46 -14 -1 -44 -5 -66 -9z"/>
<path d="M7195 9878 c-38 -13 -76 -48 -68 -61 3 -6 1 -7 -5 -3 -26 16 -98
-140 -151 -324 -69 -243 -125 -546 -220 -1195 -75 -512 -101 -666 -131 -785
-59 -237 -79 -191 -160 360 -87 587 -129 788 -210 999 -55 141 -140 233 -202
218 -59 -15 -82 -151 -128 -747 -44 -566 -79 -790 -145 -920 -27 -53 -49 -70
-89 -70 -40 0 -98 80 -224 312 -56 105 -71 125 -82 115 -12 -10 -12 -9 -1 5
10 14 -3 45 -87 205 -119 225 -130 246 -194 345 -51 80 -102 132 -122 125 -22
-7 -64 -112 -85 -211 -33 -160 -54 -366 -77 -746 -4 -63 -9 -319 -13 -569 l-6
-455 -120 -21 c-66 -12 -331 -59 -590 -105 -258 -45 -476 -84 -483 -86 -9 -3
-12 -18 -10 -46 l3 -42 560 -98 c308 -54 580 -101 605 -106 l45 -7 7 -115 c4
-63 15 -270 23 -460 41 -883 118 -1566 192 -1691 25 -41 69 -40 110 3 51 54
90 143 190 433 111 324 241 614 355 790 92 144 269 325 333 341 13 3 39 1 58
-5 42 -14 141 -98 208 -176 63 -75 195 -273 284 -427 37 -65 72 -115 76 -112
5 3 6 10 3 16 -4 7 -2 8 5 4 9 -6 9 -11 1 -22 -9 -10 -5 -25 18 -66 75 -134
165 -305 337 -643 76 -148 153 -298 172 -332 28 -51 46 -117 113 -415 44 -194
82 -363 85 -375 4 -19 12 -23 45 -23 44 0 40 -8 70 135 28 133 26 128 48 114
12 -7 27 -9 38 -4 11 4 26 9 34 9 56 4 122 229 250 851 160 780 246 1100 329
1220 15 22 36 41 46 43 11 2 30 8 42 14 76 37 153 -49 495 -556 108 -160 201
-290 208 -288 6 1 9 -2 5 -8 -10 -15 155 -231 244 -321 91 -90 127 -109 212
-109 167 0 254 146 307 515 13 96 17 191 16 475 0 362 -11 554 -54 935 -10 94
-16 173 -12 176 7 6 626 130 1242 250 146 28 271 53 278 55 9 2 12 18 10 46
l-3 41 -405 73 c-223 40 -587 105 -810 145 -223 40 -409 75 -413 79 -5 5 -26
104 -47 221 -94 528 -259 1244 -373 1619 l-13 45 -121 -240 c-121 -241 -181
-353 -267 -498 -25 -44 -43 -83 -40 -88 3 -5 1 -8 -4 -7 -13 4 -144 -191 -136
-203 3 -5 2 -8 -3 -7 -4 2 -48 -38 -98 -89 -69 -70 -100 -94 -133 -104 -39
-11 -44 -11 -67 11 -47 44 -102 197 -311 860 -250 795 -341 1067 -455 1352
-43 108 -62 169 -66 217 -6 71 -13 81 -55 81 -20 0 -32 8 -42 28 -21 39 -87
100 -116 106 -14 3 -38 0 -55 -6z m45 -58 c0 -5 -4 -10 -10 -10 -5 0 -10 5
-10 10 0 6 5 10 10 10 6 0 10 -4 10 -10z m143 -3489 c-1 -2 -77 68 -169 155
-91 87 -205 195 -252 240 l-87 81 199 989 c110 544 222 1103 250 1243 l51 254
5 -1479 c3 -813 4 -1481 3 -1483z m207 2339 c259 -1202 332 -1540 364 -1688
l33 -153 -211 -203 c-116 -111 -232 -222 -258 -245 l-48 -44 0 769 c0 423 -3
1077 -6 1454 -4 377 -4 683 -1 680 3 -3 60 -259 127 -570z m1570 -301 c0 -11
-4 -17 -10 -14 -5 3 -10 13 -10 21 0 8 5 14 10 14 6 0 10 -9 10 -21z m-4045
-98 c3 -5 2 -12 -3 -15 -5 -3 -9 1 -9 9 0 17 3 19 12 6z m42 -66 c0 -8 -4 -12
-9 -9 -5 3 -6 10 -3 15 9 13 12 11 12 -6z m3763 -310 c0 -5 -5 -3 -10 5 -5 8
-10 20 -10 25 0 6 5 3 10 -5 5 -8 10 -19 10 -25z m-263 -441 c-3 -3 -12 -4
-19 -1 -8 3 -5 6 6 6 11 1 17 -2 13 -5z m-100 -129 c0 -8 -4 -12 -9 -9 -5 3
-6 10 -3 15 9 13 12 11 12 -6z m-77 -89 c0 -2 -7 -7 -16 -10 -8 -3 -12 -2 -9
4 6 10 25 14 25 6z m490 -636 c432 -77 1003 -180 1270 -228 l485 -87 -675 -6
c-791 -7 -2511 -12 -2516 -6 -2 2 113 114 255 249 l258 246 69 -14 c38 -7 422
-77 854 -154z m-2046 46 c61 -58 176 -168 256 -245 l145 -140 -1620 1 c-891 0
-1611 3 -1600 6 33 8 2668 480 2689 481 11 1 65 -43 130 -103z m3845 -450
c-10 -10 -2690 -537 -2713 -534 -12 2 -135 119 -275 261 l-254 257 329 1 c599
3 2576 15 2748 17 93 1 167 0 165 -2z m-3469 -21 c0 -2 -127 -108 -281 -235
-181 -148 -288 -229 -298 -226 -13 4 -1231 220 -1701 301 -504 87 -896 157
-899 161 -2 2 712 4 1587 4 876 0 1592 -2 1592 -5z m82 -1943 l-7 -1144 -284
1259 c-157 692 -285 1270 -285 1284 -1 22 43 61 289 263 l290 237 2 -378 c2
-208 -1 -893 -5 -1521z m598 1352 c-1 -10 -115 -559 -255 -1219 l-254 -1200 0
1475 -1 1475 255 -256 c161 -161 255 -263 255 -275z m-1973 150 c-3 -3 -12 -4
-19 -1 -8 3 -5 6 6 6 11 1 17 -2 13 -5z m-346 -781 c13 -16 12 -17 -3 -4 -12
9 -18 10 -18 2 0 -6 -5 -11 -11 -11 -8 0 -8 5 1 15 15 19 15 19 31 -2z m2899
-78 c11 -13 10 -14 -4 -9 -9 3 -16 10 -16 15 0 13 6 11 20 -6z m-3005 -74 c3
-5 2 -12 -3 -15 -5 -3 -9 1 -9 9 0 17 3 19 12 6z m3305 -319 c0 -5 -7 -9 -15
-9 -8 0 -12 4 -9 9 3 4 9 8 15 8 5 0 9 -4 9 -8z"/>
<path d="M11408 8455 c-45 -25 -71 -95 -71 -189 1 -211 149 -375 250 -276 102
100 46 396 -88 466 -35 17 -56 17 -91 -1z"/>
<path d="M11802 8415 c-37 -42 -52 -90 -52 -170 0 -80 15 -128 52 -170 80 -92
177 0 178 168 0 86 -16 136 -57 180 -39 40 -82 37 -121 -8z"/>
<path d="M12104 8374 c-86 -90 -81 -288 7 -324 58 -25 117 38 140 150 15 70
-1 143 -38 182 -36 38 -68 36 -109 -8z"/>
<path d="M12362 8254 c-44 -31 -77 -133 -66 -205 8 -49 47 -99 78 -99 51 0
106 94 106 180 0 108 -56 167 -118 124z"/>
<path d="M12568 8087 c-41 -34 -61 -85 -62 -154 -1 -48 4 -68 20 -90 60 -81
153 3 154 140 0 109 -50 156 -112 104z"/>
<path d="M11840 7990 c-91 -9 -122 -16 -181 -46 -88 -44 -159 -155 -159 -250
0 -68 28 -121 156 -296 57 -79 122 -179 144 -223 38 -76 41 -92 75 -327 40
-280 44 -417 20 -658 -22 -216 -20 -296 8 -350 43 -87 139 -125 317 -125 104
0 120 2 165 26 161 82 213 316 171 753 -20 198 -20 342 -1 661 8 138 16 300
16 361 2 104 1 113 -27 163 -65 121 -264 246 -479 301 -81 21 -100 22 -225 10z"/>
<path d="M2989 6281 c-57 -59 -88 -136 -96 -240 -19 -250 155 -352 267 -157
77 135 74 328 -6 412 -26 28 -38 34 -75 34 -38 0 -48 -5 -90 -49z"/>
<path d="M2598 6285 c-14 -8 -38 -38 -52 -67 -68 -136 -2 -368 104 -368 75 0
125 100 118 233 -6 96 -33 161 -82 195 -37 25 -51 27 -88 7z"/>
<path d="M2288 6226 c-90 -45 -86 -246 7 -342 49 -52 80 -56 117 -16 69 72 57
231 -25 328 -30 36 -66 46 -99 30z"/>
<path d="M2016 6039 c-26 -30 -31 -56 -27 -134 6 -104 93 -203 147 -167 27 17
54 79 54 123 0 154 -104 261 -174 178z"/>
<path d="M1806 5867 c-76 -76 -8 -297 91 -297 27 0 37 6 53 33 41 67 17 201
-46 257 -41 36 -67 38 -98 7z"/>
<path d="M2465 5785 c-213 -58 -454 -219 -523 -350 -35 -66 -34 -125 9 -525
32 -295 33 -319 34 -745 1 -366 4 -451 17 -505 70 -286 209 -380 479 -325 152
30 223 79 248 170 16 59 14 102 -15 301 -38 264 -42 487 -15 767 31 316 36
328 212 599 60 91 119 188 131 215 31 69 29 143 -5 210 -77 150 -187 203 -412
202 -60 0 -132 -6 -160 -14z"/>
<path d="M11346 3059 c-51 -12 -148 -61 -210 -107 -134 -98 -199 -267 -167
-434 25 -126 128 -302 220 -376 103 -83 241 -118 364 -92 89 18 210 83 278
150 179 175 176 433 -9 678 -67 90 -148 149 -241 176 -59 17 -172 20 -235 5z
m182 -189 c116 -53 233 -246 233 -386 0 -146 -110 -254 -261 -254 -83 0 -136
24 -200 90 -109 112 -165 291 -125 396 52 137 225 212 353 154z"/>
<path d="M3060 2808 c-233 -420 -350 -633 -350 -638 0 -8 168 -95 173 -90 3 3
44 76 92 163 l87 158 31 -20 c18 -10 83 -45 146 -77 100 -51 122 -58 187 -62
68 -4 80 -2 139 27 107 53 179 171 178 291 -1 109 -44 178 -156 248 -67 42
-362 207 -388 217 -12 4 -44 -45 -139 -217z m406 -126 c82 -58 94 -140 31
-209 -26 -28 -42 -36 -80 -40 -42 -5 -58 0 -153 48 -59 30 -108 59 -111 65 -4
10 63 140 114 222 l14 23 69 -39 c39 -21 90 -53 116 -70z"/>
<path d="M10605 2630 c-11 -4 -50 -22 -87 -38 l-66 -30 144 -326 c144 -325
167 -393 145 -435 -18 -33 -71 -61 -114 -61 -40 0 -80 31 -118 89 l-15 24 -77
-43 c-42 -24 -77 -48 -77 -52 0 -16 32 -72 63 -111 17 -20 55 -49 84 -63 139
-68 357 14 429 162 36 73 36 154 2 246 -34 91 -282 648 -288 647 -3 0 -14 -4
-25 -9z"/>
<path d="M3887 2307 c-134 -351 -148 -395 -148 -480 -1 -153 100 -258 321
-333 37 -13 83 -19 140 -19 145 0 210 48 286 210 54 116 245 615 239 624 -5
10 -174 75 -179 70 -1 -2 -49 -125 -106 -274 -56 -148 -115 -297 -130 -330
-45 -101 -111 -139 -201 -115 -107 28 -169 94 -169 178 0 46 19 102 144 426
53 137 96 251 96 255 0 6 -162 71 -178 71 -4 0 -56 -127 -115 -283z"/>
<path d="M9630 2244 c-157 -52 -309 -101 -338 -110 -29 -9 -55 -21 -58 -27 -4
-11 288 -922 299 -933 2 -3 15 0 28 5 13 6 171 58 352 116 196 64 327 111 327
119 0 11 -39 137 -45 144 -1 2 -113 -33 -248 -77 -135 -44 -253 -81 -263 -83
-14 -2 -25 19 -56 117 -21 66 -38 123 -38 127 0 4 105 41 234 83 l234 75 -26
79 c-14 44 -30 77 -36 76 -6 -2 -109 -36 -229 -74 -121 -39 -223 -71 -227 -71
-9 0 -75 198 -69 204 2 2 112 39 244 81 132 43 244 81 249 85 8 8 -29 137 -43
151 -3 4 -134 -36 -291 -87z"/>
<path d="M4826 1744 c-70 -262 -126 -477 -124 -478 2 -2 44 -14 95 -28 l92
-25 15 51 c8 28 31 114 51 191 20 77 41 144 45 149 12 12 106 -22 141 -51 36
-30 43 -48 124 -277 l62 -180 108 -29 c59 -15 109 -26 112 -23 8 7 -82 298
-112 364 -14 30 -38 71 -55 91 l-29 38 66 6 c167 16 262 131 251 303 -8 122
-66 186 -214 236 -63 22 -483 138 -497 138 -2 0 -61 -214 -131 -476z m439 220
c143 -39 172 -54 192 -102 27 -64 -16 -151 -82 -168 -27 -7 -335 61 -335 74 0
4 14 59 32 124 28 100 35 117 50 112 9 -3 74 -21 143 -40z"/>
<path d="M8780 2004 c-14 -2 -137 -21 -273 -41 l-248 -37 5 -25 c3 -14 38
-233 77 -486 40 -253 73 -461 75 -463 3 -5 184 24 190 31 3 3 -9 94 -26 202
-17 108 -30 199 -27 201 2 3 33 7 69 11 94 8 117 -6 280 -181 78 -83 144 -154
148 -159 6 -6 192 17 228 29 9 2 -21 43 -80 111 -136 156 -187 205 -250 238
l-55 29 56 26 c73 35 126 94 146 165 37 125 -31 285 -141 331 -36 15 -132 25
-174 18z m76 -192 c31 -25 44 -55 44 -104 0 -84 -34 -106 -211 -138 -179 -32
-163 -40 -185 95 -10 63 -14 118 -11 122 12 11 207 41 277 42 48 0 71 -4 86
-17z"/>
<path d="M5810 1958 c0 -32 108 -979 112 -983 5 -5 156 -25 187 -25 26 0 31
10 166 346 100 250 141 341 146 328 4 -11 29 -176 55 -369 26 -192 49 -352 50
-354 4 -4 207 -32 210 -28 3 5 347 921 351 936 4 15 -10 19 -93 29 -54 6 -99
10 -100 9 -1 -1 -52 -147 -114 -325 -62 -177 -116 -320 -119 -317 -3 3 -24
156 -46 340 -23 184 -44 337 -46 339 -8 9 -224 34 -231 27 -4 -3 -59 -136
-124 -296 -64 -159 -121 -301 -126 -315 -6 -14 -12 -20 -14 -15 -3 9 -64 640
-64 663 0 5 -40 14 -88 21 -115 14 -112 15 -112 -11z"/>
<path d="M7473 1865 c-149 -40 -253 -137 -305 -284 -12 -36 -22 -95 -25 -162
-18 -336 170 -560 467 -559 349 1 542 259 475 634 -34 192 -162 335 -336 375
-63 15 -215 12 -276 -4z m265 -181 c58 -29 90 -65 124 -140 19 -43 22 -66 23
-179 0 -116 -3 -136 -24 -183 -76 -168 -309 -204 -430 -66 -45 51 -69 111 -80
199 -18 148 20 284 95 341 78 60 204 72 292 28z"/>
</g>
</svg>
